<svg version="1" xmlns="http://www.w3.org/2000/svg" width="200" height="200" viewBox="0 0 150.000000 150.000000"><path d="M65.3 16C36 21.3 15.6 45.5 15.6 75c0 26.3 15.3 47.6 40.4 56.4 16.7 5.8 36.8 3.3 51.7-6.4 24.9-16.4 34.1-48.7 21.4-75.4-3.7-7.9-8.8-14.9-10.3-14-.6.4-.8.3-.4-.4 1-1.7-9.3-10-16.9-13.6-3.8-1.9-9.1-3.9-11.7-4.5-6.9-1.6-18.5-2.1-24.5-1.1zm26.2 6.1c18.8 5.8 34 22.4 38 41.6 1.8 8.6 1.8 14 0 22.6-5.4 25.4-28 43.8-54 44-15.6.1-28.4-5.2-39.5-16.3-24.8-24.8-21-65.5 8-84.9 14.4-9.6 31.1-12 47.5-7z"/><path d="M71 30.9c-2.4 4.6-.3 12.1 3.4 12.1 1.8 0 4.3-3 5.1-6.3C81 31 73.7 26 71 30.9zM60.6 36.5c-.8 2.1 1.1 5.8 2.7 5.2 1.9-.6 1.5-6.1-.4-6.5-.9-.2-1.9.4-2.3 1.3zM53.4 39.4c-.4 1.1 0 2.4.9 3.4 1.5 1.4 1.7 1.4 2.3-.2.4-1.1 0-2.4-.9-3.4-1.5-1.4-1.7-1.4-2.3.2zM46.5 43c-.8 1.3.6 4 2.1 4 1.9 0 1.8-3.6-.1-4.3-.8-.4-1.7-.2-2 .3zM61 48.6c-11.1 2.9-14.4 7.7-13.7 19.9.6 9.4 3.3 17.4 8.2 23.8 6.3 8.3 14.5 11.1 19.3 6.7 2.8-2.7 2.8-5.6-.3-12.2-3-6.4-3.1-9.2-.5-16 2-5.2 2-5.2-.1-7.4-2.7-2.9-3.5-8.5-1.6-12.2 1.3-2.7 1.3-3.1 0-3.6-2.2-.9-5.2-.6-11.3 1zM42.2 50.1c.2.7 1 1.5 1.7 1.7.8.3 1.2-.1.9-.9-.2-.7-1-1.5-1.7-1.7-.8-.3-1.2.1-.9.9z"/><path d="M75.2 51.2c-1.5 1.5-1.6 7.2-.2 9.9 2.4 4.3 8 1.3 8-4.3 0-5.1-4.9-8.5-7.8-5.6zM88.4 55.4c-.8 2.2.3 4.9 1.9 4.3.6-.2 1.2-1.4 1.2-2.7 0-2.7-2.2-3.9-3.1-1.6zM97.1 58.4c-1.1 1.3-1.1 2-.3 2.8.8.8 1.3.7 1.8-.5 1-2.7 0-4.1-1.5-2.3zM103.3 63.5c-.3.9-.3 1.8 0 2.1.9.9 2.7-.6 2.7-2.2 0-1.9-1.9-1.8-2.7.1zM77.5 69.5c-3.5 3.4-3.2 7.6 1 16.3 4.5 9.4 5 12.7 3 18.2-4.1 11.1-4 10.8-1.5 13.5 8.3 8.8 23.2-5.7 26-25.3 2-14.2-2.1-21.8-13-24.1-8.4-1.8-12.8-1.4-15.5 1.4zM108.6 69.5c-.3.8-.1 1.5.4 1.5.6 0 1-.7 1-1.5s-.2-1.5-.4-1.5-.6.7-1 1.5z"/></svg>